PathFileType	4	(X/Y/Z)	50_2_37_p1_0-287_filt_butterworth.trc
DataRate	CameraRate	NumFrames	NumMarkers	Units	OrigDataRate	OrigDataStartFrame	OrigNumFrames
60.0	60.0	5	27	m	60.0	35	287
Frame#	Time	RHip			RKnee			RAnkle			RBigToe			RSmallToe			RHeel			LHip			LKnee			LAnkle			LBigToe			LSmallToe			LHeel			Neck			Head			Nose			RShoulder			RElbow			RWrist			RThumb			RIndex			RPinky			LShoulder			LElbow			LWrist			LThumb			LIndex			LPinky			
		X1	Y1	Z1	X2	Y2	Z2	X3	Y3	Z3	X4	Y4	Z4	X5	Y5	Z5	X6	Y6	Z6	X7	Y7	Z7	X8	Y8	Z8	X9	Y9	Z9	X10	Y10	Z10	X11	Y11	Z11	X12	Y12	Z12	X13	Y13	Z13	X14	Y14	Z14	X15	Y15	Z15	X16	Y16	Z16	X17	Y17	Z17	X18	Y18	Z18	X19	Y19	Z19	X20	Y20	Z20	X21	Y21	Z21	X22	Y22	Z22	X23	Y23	Z23	X24	Y24	Z24	X25	Y25	Z25	X26	Y26	Z26	X27	Y27	Z27	
35	0.5833333333333334	0.30731631719670727	0.662947262409507	0.9567794740415057	0.27259110021841576	0.22871310878310513	0.9677216959982979	0.2929384109655351	-0.23985447645334274	1.0176648247643243	0.24232451156928414	-0.17637611566524625	0.7727330531089128	0.3080326117816911	-0.21824012927798117	0.8215779921005709	0.2720285222871873	-0.32982093774325594	1.1027971401914363	0.09510480958665249	0.6743227115645684	0.9485252795979238	0.1014634329531887	0.21920047668741877	0.9982297821356972	0.10151190524120211	-0.2112956713893614	1.0078256235109189	0.10814128853719863	-0.16407510143611992	0.7783137589992686	0.05836008185616691	-0.184374327440322	0.8315522425854944	0.11065139175373942	-0.2968614617550784	1.06552720563968	0.19683416269254675	1.2325455818302975	0.9909222043595995	0.19590987519544567	1.494650420547592	0.8844211902489385	0.17931226033610287	1.3532009620108447	0.8248023229809184	0.3524812807299635	1.1561086325689167	0.9473542282975062	0.3859382831649546	0.8893288911403198	0.934071249698293	0.31415013825893	0.6882741697061305	0.7948553722437519	0.2383224703332577	0.5881778115279097	0.7823575936138102	0.2526412949711645	0.573533502590202	0.7783099514935272	0.27346340898839294	0.5665064259967995	0.8096555691013301	0.04983049605725752	1.159313486624249	0.9939063215604392	0.024810123327990374	0.9099462479290189	0.9092190922876194	0.060786078834157174	0.661346986100742	0.806578152972429	0.10939615319823325	0.5975342852700216	0.7420268274562578	0.09647000380445375	0.5610507307979099	0.7364307851929328	0.0698343249046604	0.5400273809007891	0.7973958718294855	
36	0.6	0.30680917751734876	0.6634297813888088	0.9542538704646395	0.2727786012555497	0.2291921111048703	0.9677029232937621	0.2922230464009207	-0.23997201697784293	1.0176017955864354	0.24373658062944553	-0.1811223612065187	0.7782582909775727	0.3079783655218675	-0.2189336789902978	0.8225892345202958	0.2721227766762826	-0.3305974011162323	1.1022473498825907	0.09581571115840128	0.6760768813356293	0.944389015352997	0.10193642833732297	0.22024500365966693	0.9970211330743376	0.10144943801987726	-0.21104967816002468	1.0077423415388507	0.10824849706304476	-0.1642328046651625	0.7785718269968791	0.05839866055910558	-0.1815128899705704	0.8262703069717612	0.11073775586433422	-0.2968895995947603	1.0651500505943272	0.1968095950997687	1.2332300606194928	0.9910474122078036	0.19506250922665241	1.494637979680801	0.8841040049910491	0.17901655922742082	1.3531295611726846	0.824756436822509	0.35234453745610184	1.1561722808944348	0.9470428444887968	0.38579648313629095	0.888605028561114	0.9336960445609774	0.3202679003081006	0.6838414973452658	0.7995970974799864	0.2502511138875945	0.5838505627913898	0.7842889747093933	0.2661254586169762	0.5686500198793085	0.7787808523342656	0.28857681514962913	0.5641343699458734	0.8007240428303064	0.050858725890992336	1.1598129777015354	0.9914223356802819	0.02338405333088613	0.9102642692398817	0.9063295723595572	0.05291485178148357	0.6519920120911464	0.8188916385419938	0.09551140447442988	0.5788692194715658	0.7566189499794057	0.07868848080035476	0.5536625109084733	0.7480656825674301	0.053398234404998524	0.5392119863484361	0.7995789645393712	
37	0.6166666666666667	0.30624828777452634	0.6643193062323558	0.9514270235597903	0.27296117106588685	0.22976395421933105	0.9676587066256169	0.2915707686358515	-0.2400658003836984	1.0175218849709984	0.24494261130770267	-0.18607569391559545	0.7838354271026021	0.3079376572698401	-0.2203119590267354	0.824409151297216	0.27220569601160566	-0.3312650642067075	1.1017676752107701	0.09638288022637324	0.6780371566756598	0.9402062060300203	0.10236084435016553	0.22140202246361357	0.9956636789743651	0.10138374225814198	-0.21089749915475595	1.0076788895928805	0.10835911594684318	-0.16428884846641018	0.778687597724009	0.05842624492858934	-0.17979490361041783	0.8219403183524489	0.11080490621475565	-0.29727543228611847	1.0651568295536318	0.19679047010302014	1.2338631379866243	0.9911663818305065	0.19423939341093555	1.4947383081973766	0.8838488658543009	0.17893683113301675	1.3532065804996092	0.8247460069521666	0.35227238467475186	1.156189177851485	0.9469097418231237	0.3856838277964428	0.8871925408283349	0.9336590009965271	0.32668387768705504	0.6781491947767755	0.8071183740261367	0.26068365373691016	0.5799605124220616	0.7863207244306093	0.2762865168970791	0.5643325461363374	0.7790478799778958	0.3000345544978237	0.5612877205197541	0.7940874731027523	0.05164247127278891	1.1605134380765316	0.9880855663631414	0.02124079352275357	0.9109115724390281	0.9028252579265611	0.04331662468752712	0.6439287597793111	0.8314371866492051	0.07979511360993571	0.5624382968703359	0.7730233326481011	0.05944737608852331	0.5479712205502743	0.7591314360358702	0.03750598632115805	0.53899984808393	0.8008533039024907	
38	0.6333333333333333	0.30565436963086373	0.6655419302440482	0.9482982470648769	0.2731626643887181	0.23037800224960875	0.9675907407590354	0.2910333295400607	-0.24005784433370192	1.0174334823033335	0.24570871429129654	-0.19041350943185342	0.7884745561703513	0.30786788478644445	-0.22215659861575093	0.82668162288371	0.2722710674718611	-0.33178331479504547	1.1014211871379909	0.09682066245832689	0.6801320860721322	0.9360588596492758	0.1026941761623681	0.22258576632726013	0.9942158862727097	0.1013245043542285	-0.21081282032341853	1.0076350477166474	0.10841713486315677	-0.16425318949946222	0.7786668146397713	0.05841558380704129	-0.17990707824201974	0.819736624561779	0.1108428606438836	-0.2979939853679744	1.0654948625900746	0.19677845955496143	1.2343554678092732	0.9912610908229185	0.19353884622393977	1.4950322981575452	0.8836611222631764	0.17897964900875526	1.3535322762913562	0.8247250106181909	0.3522598914036369	1.1561685903518417	0.9469339980938101	0.3859126566783938	0.8853015134670307	0.9344591233989323	0.33378623611012087	0.6714345805075781	0.8170454926499302	0.27020840244745475	0.5760757917243666	0.787710099795917	0.28394242891542393	0.5598746229871941	0.7791033445272605	0.309188652233971	0.5562320568369542	0.7936003339041344	0.05205268430800203	1.161195867254451	0.9847580372490262	0.018423633461703115	0.9113941481878851	0.8994681037486939	0.03254027001650731	0.6375389105258301	0.8425431265514989	0.06251606112729614	0.5502630951809566	0.7877853216667274	0.039623793084309765	0.5440752538198385	0.7668128834521765	0.02191111906075441	0.5389985030890467	0.8007813157393912	
39	0.65	0.3050197820211662	0.6669148956062508	0.9448744880297474	0.27341586200142565	0.23094033500570105	0.9675347062343482	0.29060012548003217	-0.23990660846773393	1.0173540842552444	0.24586456489624406	-0.19338760678210964	0.791414059114196	0.3077383912614441	-0.2239715133587051	0.8290464653945915	0.27231769948362244	-0.3321397715647903	1.1011988921067166	0.09711475242432749	0.6821928235773367	0.932030102158194	0.10297073386026705	0.2237476199980048	0.9927458527333385	0.10128698527169565	-0.21079049539344194	1.007621621199515	0.10844319678104872	-0.16421249559144463	0.7786209844663118	0.058365362983807345	-0.18195387420302941	0.8201256597478918	0.11086958648822874	-0.29897636021363816	1.066127290772645	0.1967732907496781	1.23463930574288	0.9913180428369843	0.19306884958192383	1.4955094813217955	0.8836210001837087	0.1790243195603533	1.3541063387475303	0.8246591284848475	0.3522756904977187	1.1561362262918282	0.9470187514632668	0.3866860374157829	0.8830582050930611	0.9364917831500059	0.3415474580411937	0.6642348114416092	0.8281135313563844	0.27936723936142177	0.5720397220788637	0.7879257043619157	0.2905887832917614	0.5547109285223591	0.7795969991618695	0.3174069923020415	0.5485122491877152	0.8004581586219708	0.05200787873520882	1.1615039633249995	0.9827282644393744	0.01518501247803394	0.9113895901041639	0.8969799336863823	0.02145660307275743	0.6330837142252367	0.8505869014937553	0.044795603300067446	0.5430214331967415	0.7985470730182693	0.020144904665858842	0.5416424075830469	0.7710687950051727	0.0064794085080512355	0.5390633690653149	0.7995429673177461	
